<?xml version="1.0" encoding="UTF-8"?>
<svg version="1.1" xmlns="http://www.w3.org/2000/svg" width="512" height="512">
<g transform="translate(0.000000,512.000000) scale(0.100000,-0.100000)"
fill="#ffffff" stroke="none">
<path d="M1453 4292 c-43 -24 -307 -261 -327 -294 -13 -22 -16 -59 -16 -227
l0 -201 -204 0 c-186 0 -206 -2 -227 -19 -24 -19 -24 -21 -27 -249 l-3 -230
25 -28 24 -29 206 -3 206 -3 0 -223 0 -222 -72 -17 c-86 -21 -213 -79 -299
-138 -182 -123 -325 -332 -381 -555 -31 -126 -31 -322 0 -448 86 -344 354
-612 698 -698 126 -31 322 -31 448 0 410 102 695 448 723 875 l6 98 61 -3 61
-3 2 -210 c3 -221 7 -245 50 -264 33 -15 623 -15 656 0 43 19 47 43 50 264 l2
210 244 0 244 0 -1 -195 c-2 -213 6 -256 48 -277 19 -10 100 -13 343 -11 l319
3 24 28 c24 28 24 30 24 243 l0 214 199 0 c110 0 207 3 216 6 39 15 45 54 45
278 0 213 0 215 -24 243 l-24 28 -206 3 -206 3 0 385 0 384 201 0 201 0 29 29
29 29 0 217 c0 225 -6 264 -45 279 -9 3 -106 6 -216 6 l-199 0 0 204 c0 192
-1 205 -21 230 -41 52 -318 295 -344 302 -33 8 -42 2 -222 -160 -98 -89 -155
-148 -162 -168 -6 -18 -11 -111 -11 -219 l0 -189 -245 0 -245 0 0 208 c-1 154
-4 211 -14 224 -27 36 -302 280 -332 295 -27 13 -35 13 -57 2 -33 -18 -319
-276 -334 -303 -9 -15 -12 -83 -13 -223 l0 -203 -245 0 -245 0 0 183 c0 100
-5 198 -10 218 -8 28 -39 63 -142 155 -218 197 -214 195 -265 166z m1418 -294
l79 -72 0 -1281 c0 -705 -2 -1284 -4 -1286 -2 -2 -99 -3 -215 -1 l-211 3 0
1282 0 1283 107 96 108 96 28 -24 c15 -13 64 -56 108 -96z m1320 -1352 c-2
-704 -4 -1283 -6 -1286 -2 -3 -96 -4 -209 -2 l-206 3 0 1283 0 1283 106 96
106 96 106 -96 106 -96 -3 -1281z m-2588 1371 l98 -92 -1 -714 c0 -393 -2
-717 -5 -719 -2 -2 -34 8 -72 23 -82 33 -229 65 -300 65 l-53 0 0 668 -1 667
103 97 c57 54 110 97 118 97 8 0 59 -41 113 -92z m-493 -714 c0 -60 -4 -114
-8 -121 -7 -9 -43 -12 -148 -10 l-139 3 -3 104 c-1 58 0 111 2 118 4 10 40 13
151 13 l145 0 0 -107z m1243 100 c2 -5 2 -59 -1 -120 l-4 -113 -239 0 -239 0
0 120 0 120 239 0 c132 0 242 -3 244 -7z m1247 -113 l0 -120 -242 2 -243 3 -3
104 c-1 58 0 111 2 118 4 10 56 13 246 13 l240 0 0 -120z m1050 0 l0 -120
-145 0 -145 0 0 120 0 120 145 0 145 0 0 -120z m-2296 -297 c-1 -7 -2 -179 -2
-383 l-2 -370 -168 0 -167 0 -73 70 -72 69 0 316 0 315 243 -2 c186 -2 242 -6
241 -15z m1246 -368 l0 -385 -239 2 -239 3 -7 373 c-3 205 -3 377 0 382 4 6
99 10 246 10 l239 0 0 -385z m-2147 -119 c348 -67 636 -355 703 -703 18 -95
18 -250 0 -345 -26 -132 -92 -278 -175 -382 l-31 -38 -9 25 c-5 14 -22 64 -37
111 -14 48 -31 90 -38 94 -6 4 -51 24 -101 44 -54 22 -89 42 -87 49 12 47 22
118 22 150 l0 39 63 0 62 0 80 -80 79 -80 33 32 33 32 -92 93 -93 93 -83 0
-83 0 3 67 3 67 86 34 85 34 39 124 c22 74 34 128 29 133 -5 5 -23 13 -41 19
l-32 11 -33 -102 c-17 -56 -37 -107 -43 -113 -5 -6 -29 -18 -52 -27 l-43 -17
0 25 c0 23 -4 24 -62 27 l-63 3 -6 90 c-6 107 -22 148 -83 213 -37 40 -46 56
-46 85 0 28 6 40 25 53 21 13 25 24 25 61 0 44 -1 45 -27 38 -59 -14 -113 -73
-113 -122 0 -22 -4 -23 -65 -23 -36 0 -68 -1 -72 -2 -4 -2 -10 12 -14 29 -12
61 -52 103 -111 117 -27 6 -28 5 -28 -38 0 -36 5 -47 25 -60 19 -13 25 -25 25
-52 0 -29 -9 -46 -48 -89 -59 -64 -82 -129 -82 -231 l0 -74 -65 0 c-63 0 -65
-1 -65 -25 l0 -25 -42 17 c-24 9 -47 20 -53 25 -5 5 -24 52 -40 106 l-31 97
-34 -3 c-19 -1 -39 -7 -44 -12 -9 -9 57 -236 75 -255 5 -5 44 -23 87 -40 l77
-31 3 -67 3 -67 -83 0 -83 0 -93 -93 -92 -93 33 -32 33 -32 79 80 80 80 62 0
63 0 0 -37 c0 -21 6 -67 14 -102 l13 -64 -36 -14 c-20 -8 -65 -26 -101 -41
l-64 -27 -35 -108 c-33 -104 -34 -107 -53 -90 -33 30 -109 160 -140 240 -78
201 -78 445 0 646 108 277 365 495 652 552 88 18 262 18 353 1z m899 -544 c-2
-59 -5 -113 -7 -119 -3 -9 -26 -13 -69 -13 l-65 0 -16 58 c-9 31 -28 83 -41
114 -13 32 -24 60 -24 62 0 6 198 13 215 8 6 -1 9 -44 7 -110z m2294 105 c3
-2 6 -56 7 -118 l2 -114 -148 -3 -147 -3 0 119 c0 65 2 121 4 123 6 5 277 1
282 -4z m-1048 -114 l-3 -118 -238 0 -238 0 0 113 c0 61 0 114 1 117 0 3 108
5 240 5 l241 0 -3 -117z m-2628 -746 c165 -180 440 -180 611 0 27 29 56 53 62
52 7 0 45 -15 86 -32 l73 -32 33 -105 c19 -58 38 -104 44 -103 27 7 6 -19 -49
-60 -171 -129 -342 -187 -550 -187 -211 0 -384 59 -555 191 l-51 38 37 113 37
113 73 32 c41 17 80 32 87 32 8 1 35 -23 62 -52z"/>
<path d="M2688 3374 c-73 -39 -62 -144 19 -175 55 -21 123 28 123 88 0 45 -14
69 -50 88 -36 19 -57 18 -92 -1z"/>
<path d="M2667 2022 c-58 -60 -15 -162 67 -162 86 0 130 103 70 164 -38 37
-100 37 -137 -2z"/>
<path d="M3922 3365 c-38 -32 -46 -65 -28 -110 17 -41 71 -69 111 -59 32 8 75
59 75 89 0 58 -47 105 -104 105 -13 0 -38 -11 -54 -25z"/>
<path d="M3921 2029 c-49 -46 -49 -102 1 -144 70 -59 170 1 154 91 -13 67
-105 99 -155 53z"/>
<path d="M1441 3376 c-56 -31 -66 -99 -22 -148 39 -44 98 -46 138 -5 78 78
-19 207 -116 153z"/>
</g>
</svg>
